<svg xmlns="http://www.w3.org/2000/svg" viewBox="0 0 36 46">
  <path d="M18 1.5C9 1.5 1.8 8.7 1.8 17.7 1.8 29.2 18 44.5 18 44.5s16.2-15.3 16.2-26.8C34.2 8.7 27 1.5 18 1.5z" fill="#C1A158" stroke="#ffffff" stroke-width="1.5"/>
  <g transform="translate(7.5 6.9) scale(0.875)" fill="none" stroke="#ffffff" stroke-width="2.2" stroke-linecap="round" stroke-linejoin="round">
    <path d="M12 1.8c1.5 1.8 2.3 2.9 2.3 3.9a2.3 2.3 0 1 1-4.6 0c0-1 .8-2.1 2.3-3.9z"/>
    <path d="M9.8 9.6h4.4"/>
    <path d="M9.8 9.6v1.3c0 1.2-2.4 2-2.4 4.3v4.9a2 2 0 0 0 2 2h5.2a2 2 0 0 0 2-2v-4.9c0-2.3-2.4-3.1-2.4-4.3V9.6"/>
    <path d="M9 17.3h6"/>
  </g>
</svg>
