<svg xmlns="http://www.w3.org/2000/svg" viewBox="0 0 36 46">
  <path d="M18 1.5C9 1.5 1.8 8.7 1.8 17.7 1.8 29.2 18 44.5 18 44.5s16.2-15.3 16.2-26.8C34.2 8.7 27 1.5 18 1.5z" fill="#665096" stroke="#ffffff" stroke-width="1.5"/>
  <g transform="translate(7.5 6.9) scale(0.875)" fill="none" stroke="#ffffff" stroke-width="2.2" stroke-linecap="round" stroke-linejoin="round">
    <path d="M11.6 3.4l6 6a1.8 1.8 0 0 1 0 2.6l-4.9 4.9a1.8 1.8 0 0 1-2.6 0l-6-6V5.2a1.8 1.8 0 0 1 1.8-1.8h5.7z"/>
    <circle cx="8" cy="7.1" r="1.1"/>
    <path d="M20.6 10.6a8.2 8.2 0 0 1-6.4 9.9"/>
    <path d="M14.2 20.5 16.9 18.7"/>
    <path d="M14.2 20.5 16.6 22.1"/>
  </g>
</svg>
