<svg xmlns="http://www.w3.org/2000/svg" viewBox="0 0 36 46">
  <path d="M18 1.5C9 1.5 1.8 8.7 1.8 17.7 1.8 29.2 18 44.5 18 44.5s16.2-15.3 16.2-26.8C34.2 8.7 27 1.5 18 1.5z" fill="#5F8C2E" stroke="#ffffff" stroke-width="1.5"/>
  <g transform="translate(7.5 6.9) scale(0.875)" fill="none" stroke="#ffffff" stroke-width="2.2" stroke-linecap="round" stroke-linejoin="round">
    <path d="M8.5 8V6.4a3.5 3.5 0 0 1 7 0V8"/>
    <path d="M5.4 8.3h13.2v10.4a2.6 2.6 0 0 1-2.6 2.6H8a2.6 2.6 0 0 1-2.6-2.6V8.3z"/>
    <path d="M9.2 17.9c-.2-3.3 2.2-5.2 5.3-5 .2 3.3-2.2 5.2-5.3 5z"/>
    <path d="M9.2 17.9c1.2-1.8 2.5-3 4.1-3.8"/>
  </g>
</svg>
