<svg xmlns="http://www.w3.org/2000/svg" viewBox="0 0 36 46">
  <path d="M18 1.5C9 1.5 1.8 8.7 1.8 17.7 1.8 29.2 18 44.5 18 44.5s16.2-15.3 16.2-26.8C34.2 8.7 27 1.5 18 1.5z" fill="#0E8388" stroke="#ffffff" stroke-width="1.5"/>
  <g transform="translate(7.5 6.9) scale(0.875)" fill="none" stroke="#ffffff" stroke-width="2.2" stroke-linecap="round" stroke-linejoin="round">
    <circle cx="5.4" cy="9" r="2.3"/>
    <path d="M2.2 16.6a3.3 3.3 0 0 1 6.4 0"/>
    <circle cx="18.6" cy="9" r="2.3"/>
    <path d="M15.4 16.6a3.3 3.3 0 0 1 6.4 0"/>
    <path d="M9.6 6.9h4.8"/>
    <path d="M14.4 6.9 12.5 5"/>
    <path d="M14.4 6.9 12.5 8.8"/>
    <path d="M14.4 12.4H9.6"/>
    <path d="M9.6 12.4 11.5 10.5"/>
    <path d="M9.6 12.4 11.5 14.3"/>
  </g>
</svg>
