<svg xmlns="http://www.w3.org/2000/svg" viewBox="0 0 24 24" fill="none" stroke="currentColor" stroke-width="2" stroke-linecap="round" stroke-linejoin="round">
  <!-- bottle -->
  <path d="M10.8 5.2h2.4v1.4h-2.4z"/>
  <path d="M10.8 6.6v1.1c0 1-1.9 1.7-1.9 3.5v5.1a1.7 1.7 0 0 0 1.7 1.7h2.8a1.7 1.7 0 0 0 1.7-1.7v-5.1c0-1.8-1.9-2.5-1.9-3.5V6.6"/>
  <!-- cycle arrows -->
  <path d="M4.2 16.5A9 9 0 0 1 4.2 7.5"/>
  <path d="M4.2 7.5 1.7 8.6"/>
  <path d="M4.2 7.5 4.9 10.2"/>
  <path d="M19.8 7.5A9 9 0 0 1 19.8 16.5"/>
  <path d="M19.8 16.5 22.3 15.4"/>
  <path d="M19.8 16.5 19.1 13.8"/>
</svg>
