<svg xmlns="http://www.w3.org/2000/svg" viewBox="0 0 24 24" role="img" aria-labelledby="title desc">
  <title id="title">Refill</title>
  <desc id="desc">A bottle being refilled with a droplet from a refill nozzle.</desc>
  <g fill="none" stroke="currentColor" stroke-width="1.8" stroke-linecap="round" stroke-linejoin="round">
    <path d="M9 9.25h5.25"/>
    <path d="M9.75 9.25V7.1h3.75v2.15"/>
    <path d="M8.8 9.25h5.65l.6 8.9A1.7 1.7 0 0 1 13.35 20h-3.45a1.7 1.7 0 0 1-1.7-1.85l.6-8.9Z"/>
    <path d="M14.75 5.25h2.55a1.45 1.45 0 0 1 1.45 1.45v2.1"/>
    <path d="M16.25 5.25c.75 0 1.15-.4 1.15-1.15"/>
    <path d="M18.75 10.6c1.15 1.45 1.65 2.25 1.65 3.05a1.65 1.65 0 1 1-3.3 0c0-.8.5-1.6 1.65-3.05Z"/>
  </g>
</svg>
