<svg xmlns="http://www.w3.org/2000/svg" viewBox="0 0 24 24" role="img" aria-labelledby="title desc">
  <title id="title">Use of Reusable Product Alternatives</title>
  <desc id="desc">A set of reusable items including a bag, bottle, cutlery, and cup.</desc>
  <g fill="none" stroke="currentColor" stroke-width="1.65" stroke-linecap="round" stroke-linejoin="round">
    <path d="M4.25 9.25h5.5l.7 10H3.55l.7-10Z"/>
    <path d="M5.4 9.25V7.7a1.6 1.6 0 0 1 3.2 0v1.55"/>
    <path d="M5.5 15.6c1.6-.2 2.55-1.2 2.85-2.85 1.05 1.25.65 3.45-1.8 4.3"/>
    <path d="M6.5 16.95c.65-.85 1.2-1.55 2-2.2"/>
    <path d="M13 9.2h2.8"/>
    <path d="M13.35 9.2V7.25h2.1V9.2"/>
    <path d="M12.75 9.2h3.3l.4 7.95A1.25 1.25 0 0 1 15.2 18.5h-1.6a1.25 1.25 0 0 1-1.25-1.35l.4-7.95Z"/>
    <path d="M18.5 7.25v6.35"/>
    <path d="M17.85 7.25v2.1"/>
    <path d="M19.15 7.25v2.1"/>
    <path d="M20.8 7.25v6.35"/>
    <path d="M20.25 7.25c1.1.7 1.1 2.2 0 2.9"/>
    <path d="M18.1 15.25h3.2l-.3 3.25h-2.6l-.3-3.25Z"/>
  </g>
</svg>
