<svg xmlns="http://www.w3.org/2000/svg" viewBox="0 0 24 24" role="img" aria-labelledby="title desc">
  <title id="title">Transfer-based Reuse</title>
  <desc id="desc">Two people with a product between them and an arrow showing transfer.</desc>
  <g fill="none" stroke="currentColor" stroke-width="1.8" stroke-linecap="round" stroke-linejoin="round">
    <path d="M5.5 10.25a2 2 0 1 0 0-4 2 2 0 0 0 0 4Z"/>
    <path d="M2.75 18.5v-1.15a2.75 2.75 0 0 1 5.5 0v1.15"/>
    <path d="M18.5 10.25a2 2 0 1 0 0-4 2 2 0 0 0 0 4Z"/>
    <path d="M15.75 18.5v-1.15a2.75 2.75 0 0 1 5.5 0v1.15"/>
    <path d="M10.25 10.1 8.9 11l.6 1.35.95-.4V16h3.1v-4.05l.95.4.6-1.35-1.35-.9-.7.55a1.9 1.9 0 0 1-2.1 0l-.7-.55Z"/>
    <path d="M8.9 6.15c2.25-1.6 5.35-1.3 7.25.6"/>
    <path d="M16.15 6.75h-2.1"/>
    <path d="M16.15 6.75v-2.1"/>
  </g>
</svg>
